<svg width="24" height="24" viewBox="0 0 24 24" fill="none" xmlns="http://www.w3.org/2000/svg">
<g clip-path="url(#clip0_17_383)">
<path d="M23.9999 12C23.9999 10.374 23.2859 8.84 22.0749 7.876C22.2149 6.254 21.6349 4.665 20.4849 3.514C19.3349 2.365 17.7499 1.786 16.2079 1.959C14.1939 -0.597002 9.8429 -0.645002 7.8759 1.924C6.2519 1.78 4.6649 2.363 3.5149 3.514C2.3659 4.664 1.7859 6.254 1.9599 7.791C-0.596101 9.805 -0.645101 14.156 1.9249 16.124C1.7849 17.746 2.3649 19.335 3.5149 20.486C4.6649 21.635 6.2519 22.216 7.7919 22.041C9.8059 24.597 14.1569 24.645 16.1239 22.076C17.7439 22.212 19.3339 21.637 20.4849 20.486C21.6339 19.336 22.2139 17.746 22.0399 16.209C23.2859 15.161 23.9999 13.627 23.9999 12.001V12ZM17.5399 10.566L12.8009 15.134C11.6379 16.295 9.7349 16.285 8.5719 15.121L6.3199 13.029C5.9159 12.653 5.8919 12.02 6.2679 11.616C6.6449 11.211 7.2789 11.189 7.6809 11.564L9.9589 13.681C10.3769 14.098 11.0089 14.097 11.3989 13.706L16.1509 9.125C16.5489 8.743 17.1819 8.754 17.5649 9.151C17.9489 9.548 17.9369 10.182 17.5399 10.565V10.566Z" fill="#008505"/>
</g>
<defs>
<clipPath id="clip0_17_383">
<rect width="24" height="24" fill="white"/>
</clipPath>
</defs>
</svg>
